<svg width="60" height="60" viewBox="0 0 60 60" fill="none" xmlns="http://www.w3.org/2000/svg">
<g clip-path="url(#clip0_4_99)">
<path d="M52.0067 7.98441C37.4063 7.98441 30.8603 0.449153 30.7673 0.34012C30.3872 -0.115016 29.611 -0.114016 29.2318 0.341121C29.1678 0.417143 22.6929 7.98341 7.99346 7.98341C7.4413 7.98341 6.99316 8.43155 6.99316 8.98371V28.0744C6.99316 38.5106 11.6846 48.4286 19.5429 54.6034C22.7109 57.0932 26.1329 58.8947 29.715 59.957C29.808 59.985 29.904 59.999 30.0001 59.999C30.0961 59.999 30.1911 59.985 30.2852 59.957C33.8672 58.8937 37.2893 57.0932 40.4572 54.6034C48.3156 48.4276 53.007 38.5106 53.007 28.0744V8.98471C53.007 8.43255 52.5598 7.98441 52.0067 7.98441ZM51.0064 28.0754C51.0064 37.9024 46.601 47.2322 39.2208 53.0319C36.337 55.2986 33.236 56.9531 30.0001 57.9544C26.7641 56.9541 23.6632 55.2986 20.7793 53.0319C13.3991 47.2332 8.99376 37.9024 8.99376 28.0754V9.97401C21.2394 9.70193 27.8644 4.47536 30.0001 2.42675C32.1357 4.47636 38.7607 9.70193 51.0064 9.97401V28.0754Z" fill="#F79C1B"/>
<path d="M29.4378 7.98838C26.4219 10.038 21.2724 12.6788 13.8691 13.6231C13.369 13.6871 12.9949 14.1122 12.9949 14.6154V28.0764C12.9949 36.686 16.829 44.8394 23.2519 49.8869C25.2746 51.4764 27.4222 52.7228 29.6349 53.5911C29.7529 53.6371 29.8769 53.6601 30 53.6601C30.198 53.6601 30.3951 53.6011 30.5631 53.486C30.8362 53.299 31.0003 52.9899 31.0003 52.6598V8.81563C31.0003 8.44452 30.7952 8.10542 30.4681 7.93136C30.142 7.75931 29.7449 7.78132 29.4378 7.98838ZM28.9997 51.1353C27.4482 50.3971 25.9358 49.4508 24.4883 48.3135C18.5445 43.6421 14.9955 36.0768 14.9955 28.0754V15.4866C21.2023 14.5684 25.8527 12.5137 28.9997 10.6372V51.1353Z" fill="#F79C1B"/>
</g>
<defs>
<clipPath id="clip0_4_99">
<rect width="60" height="60" fill="white"/>
</clipPath>
</defs>
</svg>
